<?xml version="1.0" standalone="no"?>
<!DOCTYPE svg PUBLIC "-//W3C//DTD SVG 20010904//EN"
 "http://www.w3.org/TR/2001/REC-SVG-20010904/DTD/svg10.dtd">
<svg version="1.0" xmlns="http://www.w3.org/2000/svg"
 width="512.000000pt" height="512.000000pt" viewBox="0 0 512.000000 512.000000"
 preserveAspectRatio="xMidYMid meet">

<g transform="translate(0.000000,512.000000) scale(0.100000,-0.100000)"
fill="#000000" stroke="none">
<path d="M1230 4850 c-554 -101 -1013 -511 -1168 -1045 -45 -152 -56 -242 -56
-430 0 -148 4 -199 23 -285 54 -253 155 -466 312 -655 31 -38 534 -546 1116
-1128 l1058 -1057 45 0 44 0 439 437 c260 259 445 452 454 471 13 31 12 37 -7
77 -23 48 -70 72 -112 60 -13 -4 -202 -185 -421 -403 l-397 -397 -1019 1020
c-708 709 -1038 1046 -1081 1105 -74 100 -171 295 -200 400 -144 525 35 1067
458 1385 315 237 709 316 1094 220 231 -58 401 -158 627 -370 73 -68 84 -75
122 -75 36 0 48 7 102 58 130 122 185 167 265 219 451 296 1040 275 1473 -52
493 -370 650 -1045 374 -1598 -80 -161 -142 -234 -522 -618 -347 -350 -363
-367 -363 -403 0 -62 72 -118 133 -102 30 7 740 722 805 810 330 449 383 1059
136 1551 -217 432 -614 725 -1089 807 -102 17 -147 19 -295 15 -191 -6 -266
-19 -426 -72 -190 -63 -383 -175 -527 -306 l-68 -62 -42 40 c-194 184 -452
318 -727 378 -121 27 -428 30 -560 5z"/>
<path d="M3661 1576 c-76 -42 -62 -162 22 -184 71 -18 127 23 127 93 0 82 -79
130 -149 91z"/>
</g>
</svg>
